#N canvas 178 491 855 526 10;
#X obj -58 224 inlet~;
#X obj -7 441 outlet~;
#X obj 65 339 +~;
#X obj 80 280 *~ 0.7;
#X obj 79 309 hip~ 55;
#X obj 81 225 expr (60 / ($f1 * 4)) * 1000;
#X obj 81 198 pack f f;
#X text 119 12 measures;
#X obj 81 147 f;
#X obj 115 115 t b f;
#X obj 65 115 t b f;
#X text 52 11 bpm;
#X obj 169 336 / 100;
#X obj -31 369 * -1;
#X obj -31 345 - 1;
#X obj 28 400 *~;
#X obj -46 400 *~;
#X obj 2 251 / 100;
#X obj 56 89 nbx 5 14 1 3000 0 0 empty empty empty 0 -8 0 10 -262144
-1 -1 382 256;
#X obj 120 90 nbx 5 14 1 16 0 0 empty empty empty 0 -8 0 10 -262144
-1 -1 1 256;
#X obj 169 313 nbx 5 14 1 100 0 0 empty empty empty 0 -8 0 10 -262144
-1 -1 98 256;
#X obj 2 230 nbx 5 14 1 100 0 0 empty empty empty 0 -8 0 10 -262144
-1 -1 100 256;
#X obj 81 172 /;
#X obj 222 80 loadbang;
#X msg 242 161 120;
#X msg 282 161 4;
#X msg 248 130 bang;
#X msg 323 161 70;
#X msg 203 162 50;
#X obj 317 10 inlet;
#X obj 318 34 select 1;
#X obj 326 116 switch~;
#X obj 312 58 bng 15 250 50 0 empty empty empty 17 7 0 10 -262144 -1
-1;
#X obj 366 58 bng 15 250 50 0 empty empty empty 17 7 0 10 -262144 -1
-1;
#X msg 312 79 1;
#X msg 366 79 0;
#X obj 2 197 r enc2;
#X obj 56 33 r enc3;
#X obj 120 34 r enc4;
#X obj 169 286 r enc5;
#X obj 432 234 inlet~;
#X obj 483 451 outlet~;
#X obj 555 349 +~;
#X obj 570 290 *~ 0.7;
#X obj 569 319 hip~ 55;
#X obj 571 235 expr (60 / ($f1 * 4)) * 1000;
#X obj 571 208 pack f f;
#X text 609 22 measures;
#X obj 571 157 f;
#X obj 605 125 t b f;
#X obj 555 125 t b f;
#X text 542 21 bpm;
#X obj 659 346 / 100;
#X obj 459 379 * -1;
#X obj 459 355 - 1;
#X obj 518 410 *~;
#X obj 444 410 *~;
#X obj 492 261 / 100;
#X obj 546 99 nbx 5 14 1 3000 0 0 empty empty empty 0 -8 0 10 -262144
-1 -1 382 256;
#X obj 610 100 nbx 5 14 1 16 0 0 empty empty empty 0 -8 0 10 -262144
-1 -1 1 256;
#X obj 659 323 nbx 5 14 1 100 0 0 empty empty empty 0 -8 0 10 -262144
-1 -1 98 256;
#X obj 492 240 nbx 5 14 1 100 0 0 empty empty empty 0 -8 0 10 -262144
-1 -1 100 256;
#X obj 571 182 /;
#X obj 417 101 loadbang;
#X msg 412 161 120;
#X msg 452 161 4;
#X msg 418 130 bang;
#X msg 493 161 70;
#X msg 373 162 50;
#X obj 492 207 r enc2;
#X obj 546 43 r enc3;
#X obj 610 44 r enc4;
#X obj 659 296 r enc5;
#X obj 81 252 delread~ \$0_1_delay 160;
#X obj 64 377 delwrite~ \$0_1_delay 2000;
#X obj 571 262 delread~ \$0_2_delay 160;
#X obj 554 387 delwrite~ \$0_2_delay 2000;
#N canvas 90 377 989 488 osc_presets 0;
#X obj 14 11 inlet;
#X obj 14 32 bng 15 250 50 0 empty empty empty 17 7 0 10 -262144 -1
-1;
#X msg 241 210 /enc2/name wet_dry;
#X msg 179 210 /enc2 50;
#X msg 615 113 /enc3/name bpm;
#X msg 543 113 /enc3 120;
#X msg 14 277 /enc4 4;
#X msg 364 180 /enc5 70;
#X msg 426 180 /enc5/name feedback;
#X msg 76 277 /enc4/name measures;
#X obj 179 183 t b b b b;
#X obj 543 86 t b b b b;
#X obj 14 250 t b b b b;
#X obj 364 153 t b b b b;
#X msg 76 298 /enc4/min 1;
#X msg 76 319 /enc2/max 12;
#X msg 426 200 /enc5/min 1;
#X msg 426 220 /enc5/max 100;
#X msg 615 134 /enc3/min 1;
#X msg 615 155 /enc3/max 3000;
#X msg 241 231 /enc2/min 0;
#X msg 241 252 /enc2/max 100;
#X obj 214 278 nop;
#X obj 576 185 nop;
#X obj 387 249 nop;
#X obj 48 347 nop;
#X obj 358 427 outlet;
#X msg 586 248 /patch_name delay;
#X obj 586 224 t b;
#X connect 0 0 1 0;
#X connect 1 0 10 0;
#X connect 1 0 11 0;
#X connect 2 0 22 0;
#X connect 3 0 12 0;
#X connect 3 0 22 0;
#X connect 4 0 23 0;
#X connect 5 0 13 0;
#X connect 5 0 23 0;
#X connect 6 0 25 0;
#X connect 7 0 24 0;
#X connect 8 0 24 0;
#X connect 9 0 25 0;
#X connect 10 0 3 0;
#X connect 10 1 2 0;
#X connect 10 2 20 0;
#X connect 10 3 21 0;
#X connect 11 0 5 0;
#X connect 11 1 4 0;
#X connect 11 2 18 0;
#X connect 11 3 19 0;
#X connect 12 0 6 0;
#X connect 12 1 9 0;
#X connect 12 2 14 0;
#X connect 12 3 15 0;
#X connect 13 0 7 0;
#X connect 13 1 8 0;
#X connect 13 2 16 0;
#X connect 13 3 17 0;
#X connect 14 0 25 0;
#X connect 15 0 25 0;
#X connect 16 0 24 0;
#X connect 17 0 24 0;
#X connect 18 0 23 0;
#X connect 19 0 23 0;
#X connect 20 0 22 0;
#X connect 21 0 22 0;
#X connect 22 0 26 0;
#X connect 23 0 26 0;
#X connect 23 0 28 0;
#X connect 24 0 26 0;
#X connect 25 0 26 0;
#X connect 27 0 26 0;
#X connect 28 0 27 0;
#X restore 311 294 pd osc_presets;
#X obj 311 325 outlet;
#X connect 0 0 16 0;
#X connect 0 0 2 0;
#X connect 2 0 15 0;
#X connect 2 0 74 0;
#X connect 3 0 4 0;
#X connect 4 0 2 1;
#X connect 5 0 73 0;
#X connect 6 0 5 0;
#X connect 8 0 22 0;
#X connect 9 0 8 0;
#X connect 9 1 22 1;
#X connect 10 0 8 0;
#X connect 10 1 8 1;
#X connect 12 0 3 1;
#X connect 13 0 16 1;
#X connect 14 0 13 0;
#X connect 15 0 1 0;
#X connect 16 0 1 0;
#X connect 17 0 14 0;
#X connect 17 0 15 1;
#X connect 18 0 10 0;
#X connect 19 0 9 0;
#X connect 20 0 12 0;
#X connect 21 0 17 0;
#X connect 22 0 6 0;
#X connect 23 0 26 0;
#X connect 24 0 18 0;
#X connect 25 0 19 0;
#X connect 26 0 28 0;
#X connect 26 0 24 0;
#X connect 26 0 25 0;
#X connect 26 0 27 0;
#X connect 27 0 20 0;
#X connect 28 0 21 0;
#X connect 29 0 30 0;
#X connect 30 0 32 0;
#X connect 30 1 33 0;
#X connect 32 0 34 0;
#X connect 33 0 35 0;
#X connect 34 0 31 0;
#X connect 34 0 26 0;
#X connect 34 0 66 0;
#X connect 34 0 77 0;
#X connect 35 0 31 0;
#X connect 36 0 21 0;
#X connect 37 0 18 0;
#X connect 38 0 19 0;
#X connect 39 0 20 0;
#X connect 40 0 56 0;
#X connect 40 0 42 0;
#X connect 42 0 55 0;
#X connect 42 0 76 0;
#X connect 43 0 44 0;
#X connect 44 0 42 1;
#X connect 45 0 75 0;
#X connect 46 0 45 0;
#X connect 48 0 62 0;
#X connect 49 0 48 0;
#X connect 49 1 62 1;
#X connect 50 0 48 0;
#X connect 50 1 48 1;
#X connect 52 0 43 1;
#X connect 53 0 56 1;
#X connect 54 0 53 0;
#X connect 55 0 41 0;
#X connect 56 0 41 0;
#X connect 57 0 54 0;
#X connect 57 0 55 1;
#X connect 58 0 50 0;
#X connect 59 0 49 0;
#X connect 60 0 52 0;
#X connect 61 0 57 0;
#X connect 62 0 46 0;
#X connect 63 0 66 0;
#X connect 64 0 58 0;
#X connect 65 0 59 0;
#X connect 66 0 68 0;
#X connect 66 0 64 0;
#X connect 66 0 65 0;
#X connect 66 0 67 0;
#X connect 67 0 60 0;
#X connect 68 0 61 0;
#X connect 69 0 61 0;
#X connect 70 0 58 0;
#X connect 71 0 59 0;
#X connect 72 0 60 0;
#X connect 73 0 3 0;
#X connect 75 0 43 0;
#X connect 77 0 78 0;
