#N canvas 481 523 855 526 10;
#X obj -58 224 inlet~;
#X obj -7 441 outlet~;
#X obj 65 339 +~;
#X obj 80 280 *~ 0.7;
#X obj 79 309 hip~ 55;
#X obj 81 225 expr (60 / ($f1 * 4)) * 1000;
#X obj 81 198 pack f f;
#X text 119 12 measures;
#X obj 81 147 f;
#X obj 115 115 t b f;
#X obj 65 115 t b f;
#X text 93 8 bpm;
#X obj 169 336 / 100;
#X obj -31 369 * -1;
#X obj -31 345 - 1;
#X obj 28 400 *~;
#X obj -46 400 *~;
#X obj 2 251 / 100;
#X obj 56 89 nbx 5 14 1 3000 0 0 empty empty empty 0 -8 0 10 -262144
-1 -1 120 256;
#X obj 120 90 nbx 5 14 1 16 0 0 empty empty empty 0 -8 0 10 -262144
-1 -1 4 256;
#X obj 169 313 nbx 5 14 1 100 0 0 empty empty empty 0 -8 0 10 -262144
-1 -1 70 256;
#X obj 2 230 nbx 5 14 1 100 0 0 empty empty empty 0 -8 0 10 -262144
-1 -1 50 256;
#X obj 81 172 /;
#X obj 202 68 loadbang;
#X msg 242 161 120;
#X msg 282 161 4;
#X msg 248 130 bang;
#X msg 323 161 70;
#X msg 203 162 50;
#X obj 317 10 inlet;
#X obj 318 34 select 1;
#X obj 326 116 switch~;
#X obj 312 58 bng 15 250 50 0 empty empty empty 17 7 0 10 -262144 -1
-1;
#X obj 366 58 bng 15 250 50 0 empty empty empty 17 7 0 10 -262144 -1
-1;
#X msg 312 79 1;
#X msg 366 79 0;
#X obj 2 197 r enc2;
#X obj 56 33 r enc3;
#X obj 120 34 r enc4;
#X obj 169 286 r enc5;
#X obj 432 234 inlet~;
#X obj 483 451 outlet~;
#X obj 555 349 +~;
#X obj 570 290 *~ 0.7;
#X obj 569 319 hip~ 55;
#X obj 571 235 expr (60 / ($f1 * 4)) * 1000;
#X obj 571 208 pack f f;
#X text 609 22 measures;
#X obj 571 157 f;
#X obj 605 125 t b f;
#X obj 555 125 t b f;
#X text 542 21 bpm;
#X obj 659 346 / 100;
#X obj 459 379 * -1;
#X obj 459 355 - 1;
#X obj 518 410 *~;
#X obj 444 410 *~;
#X obj 492 261 / 100;
#X obj 546 99 nbx 5 14 1 3000 0 0 empty empty empty 0 -8 0 10 -262144
-1 -1 120 256;
#X obj 610 100 nbx 5 14 1 16 0 0 empty empty empty 0 -8 0 10 -262144
-1 -1 4 256;
#X obj 659 323 nbx 5 14 1 100 0 0 empty empty empty 0 -8 0 10 -262144
-1 -1 70 256;
#X obj 492 240 nbx 5 14 1 100 0 0 empty empty empty 0 -8 0 10 -262144
-1 -1 50 256;
#X obj 571 182 /;
#X obj 420 54 loadbang;
#X msg 412 161 120;
#X msg 452 161 4;
#X msg 418 130 bang;
#X msg 493 161 70;
#X msg 373 162 50;
#X obj 492 207 r enc2;
#X obj 546 43 r enc3;
#X obj 610 44 r enc4;
#X obj 659 296 r enc5;
#X obj 81 252 delread~ \$0_1_delay 160;
#X obj 64 377 delwrite~ \$0_1_delay 2000;
#X obj 571 262 delread~ \$0_2_delay 160;
#X obj 554 387 delwrite~ \$0_2_delay 2000;
#N canvas 26 409 1259 581 osc_presets 0;
#X obj 164 18 inlet;
#X obj 164 39 bng 15 250 50 0 empty empty empty 17 7 0 10 -262144 -1
-1;
#X obj 993 185 t b b b b;
#X obj 761 186 t b b b b;
#X obj 563 440 outlet;
#X obj 232 250 inlet;
#X obj 482 250 inlet;
#X obj 732 250 inlet;
#X obj 992 250 inlet;
#X obj 279 249 4;
#X obj 527 250 50;
#X obj 778 249 70;
#X obj 1035 249 120;
#X obj 1065 246 pack s s;
#X obj 1047 222 symbol /enc/3/label;
#X obj 1167 222 symbol bpm;
#X obj 816 244 pack s s;
#X obj 798 220 symbol /enc/5/label;
#X obj 918 220 symbol feedbk;
#X obj 511 186 t b b b b;
#X obj 566 244 pack s s;
#X obj 668 220 symbol wet_dry;
#X obj 548 220 symbol /enc/2/label;
#X obj 261 186 t b b b b;
#X obj 316 244 pack s s;
#X obj 298 220 symbol /enc/4/label;
#X obj 418 220 symbol meas;
#X obj 77 213 t b b;
#X obj 236 289 oscy /enc/4/value;
#X obj 476 289 oscy /enc/2/value;
#X obj 726 289 oscy /enc/5/value;
#X obj 976 289 oscy /enc/3/value;
#X obj 851 404 pack s s;
#X obj 934 339 t b b b b b b;
#X obj 834 380 symbol /enc/6/label;
#X obj 1039 408 0;
#X obj 953 380 symbol N/A;
#X obj 926 409 oscy /enc/6/value;
#X obj 31 308 pack s s;
#X obj 13 284 symbol /enc/1/label;
#X obj 133 284 symbol ddelay;
#X connect 0 0 1 0;
#X connect 1 0 2 0;
#X connect 1 0 3 0;
#X connect 1 0 23 0;
#X connect 1 0 19 0;
#X connect 2 0 33 0;
#X connect 2 1 12 0;
#X connect 2 2 14 0;
#X connect 2 3 15 0;
#X connect 3 1 11 0;
#X connect 3 2 17 0;
#X connect 3 3 18 0;
#X connect 5 0 28 0;
#X connect 6 0 29 0;
#X connect 7 0 30 0;
#X connect 8 0 31 0;
#X connect 9 0 28 0;
#X connect 10 0 29 0;
#X connect 11 0 30 0;
#X connect 12 0 31 0;
#X connect 13 0 4 0;
#X connect 14 0 13 0;
#X connect 15 0 13 1;
#X connect 16 0 4 0;
#X connect 17 0 16 0;
#X connect 18 0 16 1;
#X connect 19 1 10 0;
#X connect 19 2 22 0;
#X connect 19 3 21 0;
#X connect 20 0 4 0;
#X connect 21 0 20 1;
#X connect 22 0 20 0;
#X connect 23 0 27 0;
#X connect 23 1 9 0;
#X connect 23 2 25 0;
#X connect 23 3 26 0;
#X connect 24 0 4 0;
#X connect 25 0 24 0;
#X connect 26 0 24 1;
#X connect 27 0 39 0;
#X connect 27 1 40 0;
#X connect 28 0 4 0;
#X connect 29 0 4 0;
#X connect 30 0 4 0;
#X connect 31 0 4 0;
#X connect 32 0 4 0;
#X connect 33 3 35 0;
#X connect 33 4 34 0;
#X connect 33 5 36 0;
#X connect 34 0 32 0;
#X connect 35 0 37 0;
#X connect 36 0 32 1;
#X connect 37 0 4 0;
#X connect 38 0 4 0;
#X connect 39 0 38 0;
#X connect 40 0 38 1;
#X restore 300 384 pd osc_presets;
#X obj 330 478 outlet;
#X obj 21 24 bng 15 250 50 0 empty empty empty 17 7 0 10 -262144 -1
-1;
#X obj 330 454 route 1;
#X obj 330 428 prepend;
#X obj 321 211 t b b b f;
#X connect 0 0 16 0;
#X connect 0 0 2 0;
#X connect 2 0 15 0;
#X connect 2 0 74 0;
#X connect 3 0 4 0;
#X connect 4 0 2 1;
#X connect 5 0 73 0;
#X connect 6 0 5 0;
#X connect 8 0 22 0;
#X connect 9 0 8 0;
#X connect 9 1 22 1;
#X connect 10 0 8 0;
#X connect 10 1 8 1;
#X connect 12 0 3 1;
#X connect 13 0 16 1;
#X connect 14 0 13 0;
#X connect 15 0 1 0;
#X connect 16 0 1 0;
#X connect 17 0 14 0;
#X connect 17 0 15 1;
#X connect 18 0 10 0;
#X connect 18 0 77 4;
#X connect 19 0 9 0;
#X connect 19 0 77 1;
#X connect 20 0 12 0;
#X connect 20 0 77 3;
#X connect 21 0 17 0;
#X connect 21 0 77 2;
#X connect 22 0 6 0;
#X connect 23 0 26 0;
#X connect 24 0 18 0;
#X connect 25 0 19 0;
#X connect 26 0 28 0;
#X connect 26 0 24 0;
#X connect 26 0 25 0;
#X connect 26 0 27 0;
#X connect 27 0 20 0;
#X connect 28 0 21 0;
#X connect 29 0 30 0;
#X connect 30 0 32 0;
#X connect 30 1 33 0;
#X connect 32 0 34 0;
#X connect 32 0 79 0;
#X connect 33 0 35 0;
#X connect 34 0 31 0;
#X connect 34 0 82 0;
#X connect 35 0 31 0;
#X connect 35 0 82 0;
#X connect 36 0 21 0;
#X connect 37 0 18 0;
#X connect 38 0 19 0;
#X connect 39 0 20 0;
#X connect 40 0 56 0;
#X connect 40 0 42 0;
#X connect 42 0 55 0;
#X connect 42 0 76 0;
#X connect 43 0 44 0;
#X connect 44 0 42 1;
#X connect 45 0 75 0;
#X connect 46 0 45 0;
#X connect 48 0 62 0;
#X connect 49 0 48 0;
#X connect 49 1 62 1;
#X connect 50 0 48 0;
#X connect 50 1 48 1;
#X connect 52 0 43 1;
#X connect 53 0 56 1;
#X connect 54 0 53 0;
#X connect 55 0 41 0;
#X connect 56 0 41 0;
#X connect 57 0 54 0;
#X connect 57 0 55 1;
#X connect 58 0 50 0;
#X connect 59 0 49 0;
#X connect 60 0 52 0;
#X connect 61 0 57 0;
#X connect 62 0 46 0;
#X connect 63 0 66 0;
#X connect 64 0 58 0;
#X connect 65 0 59 0;
#X connect 66 0 68 0;
#X connect 66 0 64 0;
#X connect 66 0 65 0;
#X connect 66 0 67 0;
#X connect 67 0 60 0;
#X connect 68 0 61 0;
#X connect 69 0 61 0;
#X connect 70 0 58 0;
#X connect 71 0 59 0;
#X connect 72 0 60 0;
#X connect 73 0 3 0;
#X connect 75 0 43 0;
#X connect 77 0 81 0;
#X connect 80 0 78 0;
#X connect 81 0 80 0;
#X connect 82 0 77 0;
#X connect 82 1 26 0;
#X connect 82 2 66 0;
#X connect 82 3 81 1;
#X coords 0 -1 1 1 85 40 1 2 2;
