#N canvas 544 150 931 759 10;
#X obj 183 55 inlet~ signal;
#X obj 186 425 outlet~;
#X obj 239 243 abs~;
#X obj 161 269 *~ -2;
#X obj 163 295 +~ 1;
#X obj 184 334 *~;
#X obj 238 212 *~ 0.6;
#X obj 236 317 cos~;
#X obj 238 270 /~ 3.14;
#X obj 238 289 +~ 0.25;
#N canvas 1 94 466 316 rh_scalelog 0;
#X obj 20 155 exp;
#X obj 20 107 *;
#X obj 20 130 +;
#X obj 98 87 log;
#X obj 194 84 log;
#X obj 123 123 t b f;
#X obj 123 145 -;
#X obj 20 183 outlet;
#X obj 20 19 inlet;
#X obj 98 23 inlet;
#X obj 194 24 inlet;
#X connect 0 0 7 0;
#X connect 1 0 2 0;
#X connect 2 0 0 0;
#X connect 3 0 2 1;
#X connect 3 0 5 0;
#X connect 4 0 6 0;
#X connect 5 0 6 0;
#X connect 5 1 6 1;
#X connect 6 0 1 1;
#X connect 8 0 1 0;
#X connect 9 0 3 0;
#X connect 10 0 4 0;
#X restore 329 104 pd rh_scalelog;
#X msg 377 80 0.1;
#N canvas 0 22 462 312 rh_scalelog 0;
#X obj 20 155 exp;
#X obj 20 107 *;
#X obj 20 130 +;
#X obj 98 87 log;
#X obj 194 84 log;
#X obj 123 123 t b f;
#X obj 123 145 -;
#X obj 20 183 outlet;
#X obj 20 19 inlet;
#X obj 98 23 inlet;
#X obj 194 24 inlet;
#X connect 0 0 7 0;
#X connect 1 0 2 0;
#X connect 2 0 0 0;
#X connect 3 0 2 1;
#X connect 3 0 5 0;
#X connect 4 0 6 0;
#X connect 5 0 6 0;
#X connect 5 1 6 1;
#X connect 6 0 1 1;
#X connect 8 0 1 0;
#X connect 9 0 3 0;
#X connect 10 0 4 0;
#X restore 363 442 pd rh_scalelog;
#X msg 410 418 0.1;
#X msg 456 418 10;
#X obj 186 392 *~;
#X obj 185 360 *~ 0.2;
#X msg 422 80 5;
#X obj 143 233 expr~ $v1>0;
#X obj 329 53 r enc2;
#X text 335 33 strength;
#X obj 363 389 r enc3;
#X text 365 369 gain;
#X obj 377 54 loadbang;
#X obj 410 390 loadbang;
#X obj 523 55 inlet~ signal;
#X obj 526 425 outlet~;
#X obj 579 243 abs~;
#X obj 501 269 *~ -2;
#X obj 503 295 +~ 1;
#X obj 524 334 *~;
#X obj 578 212 *~ 0.6;
#X obj 576 317 cos~;
#X obj 578 270 /~ 3.14;
#X obj 578 289 +~ 0.25;
#X obj 526 392 *~;
#X obj 525 360 *~ 0.2;
#X obj 483 233 expr~ $v1>0;
#X obj 363 416 / 100;
#N canvas 836 637 450 404 osc_presets 1;
#X obj 14 11 inlet;
#X obj 14 32 bng 15 250 50 0 empty empty empty 17 7 0 10 -262144 -1
-1;
#X msg 27 149 /enc2 50;
#X obj 27 122 t b b b b;
#X obj 228 120 t b b b b;
#X obj 62 217 nop;
#X obj 261 219 nop;
#X obj 148 338 outlet;
#X msg 228 147 /enc3 50;
#X msg 300 168 /enc3/min 1;
#X msg 300 189 /enc3/max 100;
#X msg 89 149 /enc2/name strength;
#X msg 89 191 /enc2/max 100;
#X msg 300 147 /enc3/name gain;
#X msg 89 170 /enc2/min 1;
#X obj 266 264 t b;
#X msg 266 288 /patch_name distortion;
#X connect 0 0 1 0;
#X connect 1 0 3 0;
#X connect 1 0 4 0;
#X connect 2 0 5 0;
#X connect 3 0 2 0;
#X connect 3 1 11 0;
#X connect 3 2 14 0;
#X connect 3 3 12 0;
#X connect 4 0 8 0;
#X connect 4 1 13 0;
#X connect 4 2 9 0;
#X connect 4 3 10 0;
#X connect 5 0 7 0;
#X connect 6 0 7 0;
#X connect 6 0 15 0;
#X connect 8 0 6 0;
#X connect 9 0 6 0;
#X connect 10 0 6 0;
#X connect 11 0 5 0;
#X connect 12 0 5 0;
#X connect 13 0 6 0;
#X connect 14 0 5 0;
#X connect 15 0 16 0;
#X connect 16 0 7 0;
#X restore 390 465 pd osc_presets;
#X obj 390 496 outlet;
#X obj 322 230 loadbang;
#X msg 348 280 bang;
#X obj 387 170 inlet;
#X obj 388 194 select 1;
#X obj 396 276 switch~;
#X obj 382 218 bng 15 250 50 0 empty empty empty 17 7 0 10 -262144
-1 -1;
#X obj 436 218 bng 15 250 50 0 empty empty empty 17 7 0 10 -262144
-1 -1;
#X msg 382 239 1;
#X msg 436 239 0;
#X msg 303 312 50;
#X msg 342 311 50;
#X obj 329 79 / 200;
#X connect 0 0 6 0;
#X connect 0 0 18 0;
#X connect 2 0 8 0;
#X connect 3 0 4 0;
#X connect 4 0 5 0;
#X connect 5 0 16 0;
#X connect 6 0 2 0;
#X connect 7 0 5 1;
#X connect 8 0 9 0;
#X connect 9 0 7 0;
#X connect 10 0 6 1;
#X connect 10 0 31 1;
#X connect 11 0 10 1;
#X connect 12 0 15 1;
#X connect 12 0 35 1;
#X connect 13 0 12 1;
#X connect 14 0 12 2;
#X connect 15 0 1 0;
#X connect 16 0 15 0;
#X connect 17 0 10 2;
#X connect 18 0 3 0;
#X connect 19 0 52 0;
#X connect 21 0 38 0;
#X connect 23 0 11 0;
#X connect 23 0 17 0;
#X connect 24 0 13 0;
#X connect 24 0 14 0;
#X connect 24 0 39 0;
#X connect 25 0 31 0;
#X connect 25 0 37 0;
#X connect 27 0 33 0;
#X connect 28 0 29 0;
#X connect 29 0 30 0;
#X connect 30 0 36 0;
#X connect 31 0 27 0;
#X connect 32 0 30 1;
#X connect 33 0 34 0;
#X connect 34 0 32 0;
#X connect 35 0 26 0;
#X connect 36 0 35 0;
#X connect 37 0 28 0;
#X connect 38 0 12 0;
#X connect 39 0 40 0;
#X connect 41 0 42 0;
#X connect 42 0 50 0;
#X connect 42 0 51 0;
#X connect 43 0 44 0;
#X connect 44 0 46 0;
#X connect 44 1 47 0;
#X connect 46 0 48 0;
#X connect 47 0 49 0;
#X connect 48 0 45 0;
#X connect 48 0 42 0;
#X connect 49 0 45 0;
#X connect 50 0 52 0;
#X connect 51 0 38 0;
#X connect 52 0 10 0;
