#N canvas 564 290 931 759 10;
#X obj 183 55 inlet~ signal;
#X obj 186 425 outlet~;
#X obj 239 243 abs~;
#X obj 161 269 *~ -2;
#X obj 163 295 +~ 1;
#X obj 184 334 *~;
#X obj 238 212 *~ 0.6;
#X obj 236 317 cos~;
#X obj 238 270 /~ 3.14;
#X obj 238 289 +~ 0.25;
#N canvas 1 94 466 316 rh_scalelog 0;
#X obj 20 155 exp;
#X obj 20 107 *;
#X obj 20 130 +;
#X obj 98 87 log;
#X obj 194 84 log;
#X obj 123 123 t b f;
#X obj 123 145 -;
#X obj 20 183 outlet;
#X obj 20 19 inlet;
#X obj 98 23 inlet;
#X obj 194 24 inlet;
#X connect 0 0 7 0;
#X connect 1 0 2 0;
#X connect 2 0 0 0;
#X connect 3 0 2 1;
#X connect 3 0 5 0;
#X connect 4 0 6 0;
#X connect 5 0 6 0;
#X connect 5 1 6 1;
#X connect 6 0 1 1;
#X connect 8 0 1 0;
#X connect 9 0 3 0;
#X connect 10 0 4 0;
#X restore 329 104 pd rh_scalelog;
#X msg 377 80 0.1;
#N canvas 0 22 462 312 rh_scalelog 0;
#X obj 20 155 exp;
#X obj 20 107 *;
#X obj 20 130 +;
#X obj 98 87 log;
#X obj 194 84 log;
#X obj 123 123 t b f;
#X obj 123 145 -;
#X obj 20 183 outlet;
#X obj 20 19 inlet;
#X obj 98 23 inlet;
#X obj 194 24 inlet;
#X connect 0 0 7 0;
#X connect 1 0 2 0;
#X connect 2 0 0 0;
#X connect 3 0 2 1;
#X connect 3 0 5 0;
#X connect 4 0 6 0;
#X connect 5 0 6 0;
#X connect 5 1 6 1;
#X connect 6 0 1 1;
#X connect 8 0 1 0;
#X connect 9 0 3 0;
#X connect 10 0 4 0;
#X restore 365 484 pd rh_scalelog;
#X msg 410 418 0.1;
#X msg 456 418 10;
#X obj 186 392 *~;
#X obj 185 360 *~ 0.2;
#X msg 422 80 5;
#X obj 143 233 expr~ $v1>0;
#X text 335 -7 strength;
#X text 365 369 gain;
#X obj 377 54 loadbang;
#X obj 410 390 loadbang;
#X obj 523 55 inlet~ signal;
#X obj 526 425 outlet~;
#X obj 579 243 abs~;
#X obj 501 269 *~ -2;
#X obj 503 295 +~ 1;
#X obj 524 334 *~;
#X obj 578 212 *~ 0.6;
#X obj 576 317 cos~;
#X obj 578 270 /~ 3.14;
#X obj 578 289 +~ 0.25;
#X obj 526 392 *~;
#X obj 525 360 *~ 0.2;
#X obj 483 233 expr~ $v1>0;
#X obj 361 453 / 100;
#X obj 322 230 loadbang;
#X msg 348 280 bang;
#X obj 387 170 inlet;
#X obj 396 276 switch~;
#X obj 382 218 bng 15 250 50 0 empty empty empty 17 7 0 10 -262144
-1 -1;
#X obj 436 218 bng 15 250 50 0 empty empty empty 17 7 0 10 -262144
-1 -1;
#X msg 382 239 1;
#X msg 436 239 0;
#X msg 303 312 50;
#X msg 342 311 50;
#X obj 329 79 / 200;
#X obj 388 194 select 3;
#X obj 316 58 nbx 5 14 0 200 0 0 empty empty empty 0 -8 0 10 -262144
-1 -1 50 256;
#X obj 340 421 nbx 5 14 0 100 0 0 empty empty empty 0 -8 0 10 -262144
-1 -1 50 256;
#N canvas 394 384 815 561 osc_presets 0;
#X obj 184 18 inlet;
#X obj 184 39 bng 15 250 50 0 empty empty empty 17 7 0 10 -262144 -1
-1;
#X obj 383 425 outlet;
#X obj 252 250 inlet;
#X obj 502 250 inlet;
#X obj 547 250 50;
#X obj 531 186 t b b b b;
#X obj 586 244 pack s s;
#X obj 568 220 symbol /enc/2/label;
#X obj 281 186 t b b b b;
#X obj 336 244 pack s s;
#X obj 318 220 symbol /enc/4/label;
#X obj 36 275 pack s s;
#X obj 87 213 t b b;
#X obj 496 289 oscy /enc/2/value;
#X obj 299 249 50;
#X obj 138 252 symbol distortion;
#X obj 438 220 symbol strength;
#X obj 561 404 pack s s;
#X obj 561 454 pack s s;
#X obj 561 504 pack s s;
#X obj 543 380 symbol /enc/3/label;
#X obj 543 430 symbol /enc/5/label;
#X obj 543 480 symbol /enc/6/label;
#X obj 644 339 t b b b b b b;
#X obj 688 220 symbol gain;
#X obj 759 505 0;
#X obj 646 506 oscy /enc/6/value;
#X obj 759 454 0;
#X obj 759 402 0;
#X obj 646 455 oscy /enc/5/value;
#X obj 646 403 oscy /enc/3/value;
#X obj 663 380 symbol N/A;
#X obj 663 430 symbol N/A;
#X obj 663 480 symbol N/A;
#X obj 256 289 oscy /enc/4/value;
#X obj 14 251 symbol /enc/1/label;
#X connect 0 0 1 0;
#X connect 1 0 9 0;
#X connect 1 0 6 0;
#X connect 3 0 35 0;
#X connect 4 0 14 0;
#X connect 5 0 14 0;
#X connect 6 0 24 0;
#X connect 6 1 5 0;
#X connect 6 2 8 0;
#X connect 6 3 25 0;
#X connect 7 0 2 0;
#X connect 8 0 7 0;
#X connect 9 0 13 0;
#X connect 9 1 15 0;
#X connect 9 2 11 0;
#X connect 9 3 17 0;
#X connect 10 0 2 0;
#X connect 11 0 10 0;
#X connect 12 0 2 0;
#X connect 13 0 36 0;
#X connect 13 1 16 0;
#X connect 14 0 2 0;
#X connect 15 0 35 0;
#X connect 16 0 12 1;
#X connect 17 0 10 1;
#X connect 18 0 2 0;
#X connect 19 0 2 0;
#X connect 20 0 2 0;
#X connect 21 0 18 0;
#X connect 22 0 19 0;
#X connect 23 0 20 0;
#X connect 24 0 21 0;
#X connect 24 1 22 0;
#X connect 24 2 23 0;
#X connect 24 3 32 0;
#X connect 24 3 26 0;
#X connect 24 4 33 0;
#X connect 24 4 28 0;
#X connect 24 5 34 0;
#X connect 24 5 29 0;
#X connect 25 0 7 1;
#X connect 26 0 27 0;
#X connect 27 0 2 0;
#X connect 28 0 30 0;
#X connect 29 0 31 0;
#X connect 30 0 2 0;
#X connect 31 0 2 0;
#X connect 32 0 18 1;
#X connect 33 0 19 1;
#X connect 34 0 20 1;
#X connect 35 0 2 0;
#X connect 36 0 12 0;
#X restore 488 483 pd osc_presets;
#X obj 25 21 bng 15 250 50 0 empty empty empty 17 7 0 10 -262144 -1
-1;
#X obj 489 566 outlet;
#X obj 502 541 route 1;
#X obj 492 514 prepend;
#X obj 399 317 t b b b f;
#X obj 363 389 r enc2;
#X obj 329 13 r enc4;
#X connect 0 0 6 0;
#X connect 0 0 18 0;
#X connect 2 0 8 0;
#X connect 3 0 4 0;
#X connect 4 0 5 0;
#X connect 5 0 16 0;
#X connect 6 0 2 0;
#X connect 7 0 5 1;
#X connect 8 0 9 0;
#X connect 9 0 7 0;
#X connect 10 0 6 1;
#X connect 10 0 29 1;
#X connect 11 0 10 1;
#X connect 12 0 15 1;
#X connect 12 0 33 1;
#X connect 13 0 12 1;
#X connect 14 0 12 2;
#X connect 15 0 1 0;
#X connect 16 0 15 0;
#X connect 17 0 10 2;
#X connect 18 0 3 0;
#X connect 21 0 11 0;
#X connect 21 0 17 0;
#X connect 22 0 13 0;
#X connect 22 0 14 0;
#X connect 22 0 51 0;
#X connect 23 0 29 0;
#X connect 23 0 35 0;
#X connect 25 0 31 0;
#X connect 26 0 27 0;
#X connect 27 0 28 0;
#X connect 28 0 34 0;
#X connect 29 0 25 0;
#X connect 30 0 28 1;
#X connect 31 0 32 0;
#X connect 32 0 30 0;
#X connect 33 0 24 0;
#X connect 34 0 33 0;
#X connect 35 0 26 0;
#X connect 36 0 12 0;
#X connect 37 0 38 0;
#X connect 38 0 45 0;
#X connect 38 0 46 0;
#X connect 39 0 48 0;
#X connect 41 0 43 0;
#X connect 41 0 52 0;
#X connect 42 0 44 0;
#X connect 43 0 40 0;
#X connect 43 0 56 0;
#X connect 44 0 40 0;
#X connect 44 0 56 0;
#X connect 45 0 49 0;
#X connect 46 0 50 0;
#X connect 47 0 10 0;
#X connect 48 0 41 0;
#X connect 48 1 42 0;
#X connect 49 0 47 0;
#X connect 49 0 51 1;
#X connect 50 0 36 0;
#X connect 50 0 51 2;
#X connect 51 0 55 0;
#X connect 54 0 53 0;
#X connect 55 0 54 0;
#X connect 56 1 38 0;
#X connect 56 2 51 0;
#X connect 56 3 55 1;
#X connect 57 0 50 0;
#X connect 58 0 49 0;
#X coords 0 -1 1 1 85 40 1 2 2;
