#N canvas 327 117 765 521 10;
#X obj 19 253 inlet~ signal;
#X obj 36 469 outlet~;
#X obj 18 352 vcf~;
#X msg 202 139 20;
#N canvas 0 22 454 304 rh_scalelog 0;
#X obj 20 155 exp;
#X obj 20 107 *;
#X obj 20 130 +;
#X obj 98 87 log;
#X obj 194 84 log;
#X obj 123 123 t b f;
#X obj 123 145 -;
#X obj 20 183 outlet;
#X obj 20 19 inlet;
#X obj 98 23 inlet;
#X obj 194 24 inlet;
#X connect 0 0 7 0;
#X connect 1 0 2 0;
#X connect 2 0 0 0;
#X connect 3 0 2 1;
#X connect 3 0 5 0;
#X connect 4 0 6 0;
#X connect 5 0 6 0;
#X connect 5 1 6 1;
#X connect 6 0 1 1;
#X connect 8 0 1 0;
#X connect 9 0 3 0;
#X connect 10 0 4 0;
#X restore 155 163 pd rh_scalelog;
#X obj 56 355 + 1;
#X obj 54 378 / 2;
#X obj 35 407 *~;
#N canvas 0 22 462 312 rh_scalelog 0;
#X obj 20 155 exp;
#X obj 20 107 *;
#X obj 20 130 +;
#X obj 98 87 log;
#X obj 194 84 log;
#X obj 123 123 t b f;
#X obj 123 145 -;
#X obj 20 183 outlet;
#X obj 20 19 inlet;
#X obj 98 23 inlet;
#X obj 194 24 inlet;
#X connect 0 0 7 0;
#X connect 1 0 2 0;
#X connect 2 0 0 0;
#X connect 3 0 2 1;
#X connect 3 0 5 0;
#X connect 4 0 6 0;
#X connect 5 0 6 0;
#X connect 5 1 6 1;
#X connect 6 0 1 1;
#X connect 8 0 1 0;
#X connect 9 0 3 0;
#X connect 10 0 4 0;
#X restore 321 142 pd rh_scalelog;
#X msg 368 118 0.1;
#X msg 414 118 100;
#X msg 248 139 20000;
#N canvas 0 22 462 312 rh_scalelog 0;
#X obj 20 155 exp;
#X obj 20 107 *;
#X obj 20 130 +;
#X obj 98 87 log;
#X obj 194 84 log;
#X obj 123 123 t b f;
#X obj 123 145 -;
#X obj 20 183 outlet;
#X obj 20 19 inlet;
#X obj 98 23 inlet;
#X obj 194 24 inlet;
#X connect 0 0 7 0;
#X connect 1 0 2 0;
#X connect 2 0 0 0;
#X connect 3 0 2 1;
#X connect 3 0 5 0;
#X connect 4 0 6 0;
#X connect 5 0 6 0;
#X connect 5 1 6 1;
#X connect 6 0 1 1;
#X connect 8 0 1 0;
#X connect 9 0 3 0;
#X connect 10 0 4 0;
#X restore 129 378 pd rh_scalelog;
#X msg 176 354 0.1;
#X msg 222 354 10;
#X obj 35 437 *~;
#X obj 154 212 line~;
#X msg 155 186 \$1 5;
#X obj 368 89 r \$0-loadbang;
#X obj 202 111 r \$0-loadbang;
#X obj 176 327 r \$0-loadbang;
#X obj 155 111 r enc2;
#X obj 321 88 r enc3;
#X obj 129 326 r enc4;
#X obj 279 253 inlet~ signal;
#X obj 296 469 outlet~;
#X obj 278 352 vcf~;
#X obj 316 355 + 1;
#X obj 314 378 / 2;
#X obj 295 407 *~;
#X obj 295 437 *~;
#X connect 0 0 2 0;
#X connect 2 0 7 0;
#X connect 3 0 4 1;
#X connect 4 0 17 0;
#X connect 5 0 6 0;
#X connect 6 0 7 1;
#X connect 7 0 15 0;
#X connect 8 0 2 2;
#X connect 8 0 5 0;
#X connect 8 0 26 2;
#X connect 8 0 27 0;
#X connect 9 0 8 1;
#X connect 10 0 8 2;
#X connect 11 0 4 2;
#X connect 12 0 15 1;
#X connect 12 0 30 1;
#X connect 13 0 12 1;
#X connect 14 0 12 2;
#X connect 15 0 1 0;
#X connect 16 0 2 1;
#X connect 16 0 26 1;
#X connect 17 0 16 0;
#X connect 18 0 9 0;
#X connect 18 0 10 0;
#X connect 19 0 3 0;
#X connect 19 0 11 0;
#X connect 20 0 13 0;
#X connect 20 0 14 0;
#X connect 21 0 4 0;
#X connect 22 0 8 0;
#X connect 23 0 12 0;
#X connect 24 0 26 0;
#X connect 26 0 29 0;
#X connect 27 0 28 0;
#X connect 28 0 29 1;
#X connect 29 0 30 0;
#X connect 30 0 25 0;
