#N canvas 455 316 804 653 10;
#X obj 364 569 sendOSC;
#X floatatom 364 595 5 0 0 0 - - -;
#X floatatom 403 596 5 0 0 0 - - -;
#X obj 364 518 loadbang;
#X obj 653 111 line~;
#X obj 653 16 bng 15 250 50 0 empty empty empty 17 7 0 10 -262144 -1
-1;
#X obj 570 161 *~;
#X obj 603 111 noise~;
#X obj 653 41 t b b;
#X obj 157 323 bpm_delay~;
#X obj 269 234 adc~ 1;
#X obj 329 234 adc~ 1;
#X obj 266 475 dac~;
#X obj 265 323 reverb~ ---;
#X obj 377 323 distortion~;
#X msg 653 84 1 20;
#X obj 708 63 delay 20;
#X obj 568 110 osc~;
#X obj 568 85 nbx 5 14 -1e+37 1e+37 0 0 empty empty empty 0 -8 0 10
-262144 -1 -1 0 256;
#X msg 707 85 0 500;
#X obj 603 134 *~ 0.5;
#X obj 664 138 nbx 5 14 -1e+37 1e+37 0 0 empty empty empty 0 -8 0 10
-262144 -1 -1 0 256;
#X obj 71 131 s enc2;
#X obj 121 131 s enc3;
#X obj 171 131 s enc4;
#X obj 221 131 s enc5;
#X obj 271 131 s enc6;
#X obj 321 131 print unrouted_osc;
#X obj 36 42 OSCroute /enc;
#X obj 36 16 dumpOSC 9000;
#X obj 35 70 route /1/value /2/value /3/value /4/value /5/value /6/value
;
#X text 576 39 debug;
#X obj 74 195 select 1;
#X msg 364 542 connect localhost 9001;
#X obj 27 99 * -1;
#X obj 67 99 * -1;
#X obj 197 99 * -1;
#X obj 247 99 * -1;
#X obj 15 364 oscy /enc/1/value;
#X obj 281 536 prepend send;
#X obj 569 186 s~ testbus;
#X obj 391 232 r~ testbus;
#X obj 179 22 s /global/dispval;
#X obj 415 476 pack s f;
#X obj 415 429 t b f;
#X obj 723 307 dsp 1;
#X obj 723 259 loadbang;
#X obj 723 284 1;
#X obj 415 453 symbol /global/dispval;
#X obj 416 405 r /global/dispval;
#X obj 27 170 t b b;
#X obj 82 280 t f f f f f f;
#X obj 26 139 bng 15 250 50 0 empty empty empty 17 7 0 10 -262144 -1
-1;
#X obj 38 227 f;
#X obj 65 227 + 1;
#X obj 38 254 select 4;
#X obj 21 194 1;
#X obj 74 169 mod 5;
#X connect 0 0 1 0;
#X connect 0 1 2 0;
#X connect 3 0 33 0;
#X connect 4 0 6 1;
#X connect 5 0 8 0;
#X connect 6 0 40 0;
#X connect 7 0 20 0;
#X connect 8 0 15 0;
#X connect 8 1 16 0;
#X connect 9 0 12 0;
#X connect 9 1 39 0;
#X connect 9 2 12 1;
#X connect 10 0 9 0;
#X connect 10 0 13 0;
#X connect 10 0 14 0;
#X connect 11 0 9 2;
#X connect 11 0 13 1;
#X connect 11 0 14 2;
#X connect 13 0 12 0;
#X connect 13 1 12 1;
#X connect 13 2 39 0;
#X connect 14 0 12 0;
#X connect 14 1 39 0;
#X connect 14 2 12 1;
#X connect 15 0 4 0;
#X connect 16 0 19 0;
#X connect 17 0 6 0;
#X connect 18 0 17 0;
#X connect 19 0 4 0;
#X connect 20 0 6 0;
#X connect 21 0 20 1;
#X connect 28 0 30 0;
#X connect 29 0 28 0;
#X connect 30 0 34 0;
#X connect 30 1 35 0;
#X connect 30 2 23 0;
#X connect 30 2 42 0;
#X connect 30 3 36 0;
#X connect 30 4 37 0;
#X connect 30 5 26 0;
#X connect 30 5 42 0;
#X connect 30 6 27 0;
#X connect 32 0 53 0;
#X connect 33 0 0 0;
#X connect 34 0 42 0;
#X connect 34 0 57 0;
#X connect 35 0 22 0;
#X connect 35 0 42 0;
#X connect 36 0 24 0;
#X connect 36 0 42 0;
#X connect 37 0 25 0;
#X connect 37 0 42 0;
#X connect 38 0 39 0;
#X connect 39 0 0 0;
#X connect 41 0 14 2;
#X connect 41 0 14 0;
#X connect 41 0 13 1;
#X connect 41 0 13 0;
#X connect 41 0 9 2;
#X connect 41 0 9 0;
#X connect 43 0 39 0;
#X connect 44 0 48 0;
#X connect 44 1 43 1;
#X connect 46 0 47 0;
#X connect 47 0 45 0;
#X connect 47 0 53 0;
#X connect 48 0 43 0;
#X connect 49 0 44 0;
#X connect 50 0 56 0;
#X connect 51 0 38 0;
#X connect 51 1 9 1;
#X connect 51 2 13 2;
#X connect 51 3 14 1;
#X connect 52 0 50 0;
#X connect 53 0 54 0;
#X connect 53 0 55 0;
#X connect 54 0 53 1;
#X connect 55 0 56 0;
#X connect 55 1 51 0;
#X connect 56 0 53 0;
#X connect 57 0 32 0;
