#N canvas 382 272 1086 839 10;
#X obj 744 665 sendOSC;
#X floatatom 744 691 5 0 0 0 - - -;
#X floatatom 783 692 5 0 0 0 - - -;
#X obj 744 608 loadbang;
#X obj 533 111 line~;
#X obj 533 16 bng 15 250 50 0 empty empty empty 17 7 0 10 -262144 -1
-1;
#X obj 450 161 *~;
#X obj 483 111 noise~;
#X obj 533 41 t b b;
#X obj 537 413 bpm_delay~;
#X obj 649 324 adc~ 1;
#X obj 709 324 adc~ 1;
#X obj 646 565 dac~;
#X obj 645 413 reverb~ ---;
#X obj 757 413 distortion~;
#X msg 533 84 1 20;
#X obj 588 63 delay 20;
#X obj 448 110 osc~;
#X obj 448 85 nbx 5 14 -1e+37 1e+37 0 0 empty empty empty 0 -8 0 10
-262144 -1 -1 0 256;
#X msg 587 85 0 500;
#X obj 483 134 *~ 0.5;
#X obj 544 138 nbx 5 14 -1e+37 1e+37 0 0 empty empty empty 0 -8 0 10
-262144 -1 -1 0 256;
#X obj 61 131 s enc2;
#X obj 111 131 s enc3;
#X obj 161 131 s enc4;
#X obj 211 131 s enc5;
#X obj 261 131 s enc6;
#X obj 311 131 print unrouted_osc;
#X text 4 280 voice select;
#X obj 16 42 OSCroute /enc;
#X obj 16 16 dumpOSC 9000;
#X obj 25 70 route /1/value /2/value /3/value /4/value /5/value /6/value
;
#X text 456 39 debug;
#X obj 54 215 select 1;
#X obj 85 246 + 1;
#X obj 55 247 f;
#X obj 0 248 select 6;
#X obj 23 222 0;
#X obj 54 190 mod 8;
#X msg 744 632 connect localhost 9001;
#X obj 321 40 print oscIn;
#X obj 17 99 * -1;
#X obj 57 99 * -1;
#X obj 187 99 * -1;
#X obj 596 696 print;
#X msg 644 629 send \$1 \$2;
#X obj 237 99 * -1;
#X connect 0 0 1 0;
#X connect 0 1 2 0;
#X connect 3 0 39 0;
#X connect 4 0 6 1;
#X connect 5 0 8 0;
#X connect 6 0 14 0;
#X connect 6 0 14 2;
#X connect 6 0 9 0;
#X connect 6 0 9 2;
#X connect 6 0 13 0;
#X connect 6 0 13 1;
#X connect 7 0 20 0;
#X connect 8 0 15 0;
#X connect 8 1 16 0;
#X connect 9 0 12 0;
#X connect 9 1 45 0;
#X connect 9 2 12 1;
#X connect 10 0 9 0;
#X connect 10 0 13 0;
#X connect 10 0 14 0;
#X connect 11 0 9 2;
#X connect 11 0 13 1;
#X connect 11 0 14 2;
#X connect 13 0 12 0;
#X connect 13 1 12 1;
#X connect 13 2 45 0;
#X connect 14 0 12 0;
#X connect 14 1 45 0;
#X connect 14 2 12 1;
#X connect 15 0 4 0;
#X connect 16 0 19 0;
#X connect 17 0 6 0;
#X connect 18 0 17 0;
#X connect 19 0 4 0;
#X connect 20 0 6 0;
#X connect 21 0 20 1;
#X connect 29 0 31 0;
#X connect 30 0 29 0;
#X connect 30 0 40 0;
#X connect 31 0 41 0;
#X connect 31 1 42 0;
#X connect 31 2 23 0;
#X connect 31 3 43 0;
#X connect 31 4 46 0;
#X connect 31 5 26 0;
#X connect 31 6 27 0;
#X connect 33 0 35 0;
#X connect 34 0 35 1;
#X connect 35 0 34 0;
#X connect 35 0 36 0;
#X connect 35 0 9 1;
#X connect 35 0 13 2;
#X connect 35 0 14 1;
#X connect 36 0 37 0;
#X connect 37 0 35 1;
#X connect 38 0 33 0;
#X connect 39 0 0 0;
#X connect 41 0 38 0;
#X connect 42 0 22 0;
#X connect 43 0 24 0;
#X connect 45 0 0 0;
#X connect 45 0 44 0;
#X connect 46 0 25 0;
