#N canvas 1 93 450 300 10;
#X obj 181 130 pack s f;
#X obj 196 77 t b f;
#X obj 196 44 inlet;
#X obj 181 158 outlet;
#X obj 181 103 symbol \$1;
#X connect 0 0 3 0;
#X connect 1 0 4 0;
#X connect 1 1 0 1;
#X connect 2 0 1 0;
#X connect 4 0 0 0;
