#N canvas 876 494 599 343 10;
#X obj 130 235 outlet~;
#X obj 62 236 outlet~;
#X obj 132 133 rev1~;
#X obj -10 133 rev1~;
#X obj -9 172 *~;
#X obj 131 173 *~;
#X obj 208 188 *~;
#X obj 61 171 *~;
#X obj 209 43 inlet~;
#X obj -11 42 inlet~;
#X obj 62 119 * -1;
#X obj 62 95 - 1;
#X obj 57 46 nbx 3 14 1 100 0 0 empty empty decay 0 -8 0 10 -262144
-1 -1 1 256;
#X obj 55 12 inlet;
#X obj 113 22 nbx 3 14 1 100 0 0 empty empty wet/dry 0 -8 0 10 -262144
-1 -1 1 256;
#X obj 113 42 / 100;
#X obj 166 43 bang;
#X obj 166 16 inlet;
#X obj 113 -14 inlet;
#X obj 438 -29 switch~;
#X obj 438 -57 inlet;
#X connect 2 0 5 0;
#X connect 3 0 4 0;
#X connect 4 0 1 0;
#X connect 5 0 0 0;
#X connect 6 0 0 0;
#X connect 7 0 1 0;
#X connect 8 0 6 0;
#X connect 8 0 2 0;
#X connect 9 0 7 0;
#X connect 9 0 3 0;
#X connect 10 0 4 1;
#X connect 10 0 5 1;
#X connect 11 0 10 0;
#X connect 12 0 2 1;
#X connect 12 0 3 1;
#X connect 13 0 12 0;
#X connect 14 0 15 0;
#X connect 15 0 7 1;
#X connect 15 0 6 1;
#X connect 15 0 11 0;
#X connect 17 0 16 0;
#X connect 18 0 14 0;
#X connect 20 0 19 0;
