#N canvas 773 703 512 324 10;
#X obj 130 235 outlet~;
#X obj 62 236 outlet~;
#X obj 132 133 rev1~;
#X obj -10 133 rev1~;
#X obj -9 172 *~;
#X obj 131 173 *~;
#X obj 208 188 *~;
#X obj 61 171 *~;
#X obj 209 43 inlet~;
#X obj -11 42 inlet~;
#X obj 62 119 * -1;
#X obj 62 95 - 1;
#X obj 57 46 nbx 3 14 1 100 0 0 empty empty decay 0 -8 0 10 -262144
-1 -1 66 256;
#X obj 138 22 nbx 3 14 1 100 0 0 empty empty wet/dry 0 -8 0 10 -262144
-1 -1 50 256;
#X obj 138 42 / 100;
#X obj 298 46 loadbang;
#X msg 324 96 bang;
#X msg 279 128 50;
#X obj 393 -24 inlet;
#X obj 402 82 switch~;
#X obj 388 24 bng 15 250 50 0 empty empty empty 17 7 0 10 -262144 -1
-1;
#X obj 442 24 bng 15 250 50 0 empty empty empty 17 7 0 10 -262144 -1
-1;
#X msg 386 48 1;
#X msg 442 45 0;
#X obj 394 0 select 2;
#X msg 318 127 50;
#N canvas 58 309 815 561 osc_presets 0;
#X obj 184 18 inlet;
#X obj 184 39 bng 15 250 50 0 empty empty empty 17 7 0 10 -262144 -1
-1;
#X obj 329 521 outlet;
#X obj 252 250 inlet;
#X obj 502 250 inlet;
#X obj 547 250 50;
#X obj 531 186 t b b b b;
#X obj 586 244 pack s s;
#X obj 688 220 symbol wet_dry;
#X obj 568 220 symbol /enc/2/label;
#X obj 281 186 t b b b b;
#X obj 336 244 pack s s;
#X obj 318 220 symbol /enc/4/label;
#X obj 97 213 t b b;
#X obj 256 289 oscy /enc/4/value;
#X obj 496 289 oscy /enc/2/value;
#X obj 438 220 symbol decay;
#X obj 299 249 50;
#X obj 581 344 pack s s;
#X obj 581 394 pack s s;
#X obj 581 444 pack s s;
#X obj 563 320 symbol /enc/3/label;
#X obj 563 370 symbol /enc/5/label;
#X obj 563 420 symbol /enc/6/label;
#X obj 664 279 t b b b b b b;
#X obj 683 320 symbol N/A;
#X obj 683 370 symbol N/A;
#X obj 683 420 symbol N/A;
#X obj 759 448 0;
#X obj 646 449 oscy /enc/6/value;
#X obj 763 395 0;
#X obj 766 345 0;
#X obj 650 396 oscy /enc/5/value;
#X obj 653 346 oscy /enc/3/value;
#X obj 41 318 pack s s;
#X obj 23 294 symbol /enc/1/label;
#X obj 143 294 symbol reverb;
#X connect 0 0 1 0;
#X connect 1 0 10 0;
#X connect 1 0 6 0;
#X connect 3 0 14 0;
#X connect 4 0 15 0;
#X connect 5 0 15 0;
#X connect 6 0 24 0;
#X connect 6 1 5 0;
#X connect 6 2 9 0;
#X connect 6 3 8 0;
#X connect 7 0 2 0;
#X connect 8 0 7 1;
#X connect 9 0 7 0;
#X connect 10 0 13 0;
#X connect 10 1 17 0;
#X connect 10 2 12 0;
#X connect 10 3 16 0;
#X connect 11 0 2 0;
#X connect 12 0 11 0;
#X connect 13 0 35 0;
#X connect 13 1 36 0;
#X connect 14 0 2 0;
#X connect 15 0 2 0;
#X connect 16 0 11 1;
#X connect 17 0 14 0;
#X connect 18 0 2 0;
#X connect 19 0 2 0;
#X connect 20 0 2 0;
#X connect 21 0 18 0;
#X connect 22 0 19 0;
#X connect 23 0 20 0;
#X connect 24 0 21 0;
#X connect 24 1 22 0;
#X connect 24 2 23 0;
#X connect 24 3 28 0;
#X connect 24 3 25 0;
#X connect 24 4 30 0;
#X connect 24 4 26 0;
#X connect 24 5 31 0;
#X connect 24 5 27 0;
#X connect 25 0 18 1;
#X connect 26 0 19 1;
#X connect 27 0 20 1;
#X connect 28 0 29 0;
#X connect 29 0 2 0;
#X connect 30 0 32 0;
#X connect 31 0 33 0;
#X connect 32 0 2 0;
#X connect 33 0 2 0;
#X connect 34 0 2 0;
#X connect 35 0 34 0;
#X connect 36 0 34 1;
#X restore 296 169 pd osc_presets;
#X obj 18 23 bng 15 250 50 0 empty empty empty 17 7 0 10 -262144 -1
-1;
#X obj 309 256 outlet;
#X obj 322 231 route 1;
#X obj 312 204 prepend;
#X obj 401 111 t b b b f;
#X obj 138 -14 r enc2;
#X obj 55 12 r enc4;
#X connect 2 0 5 0;
#X connect 3 0 4 0;
#X connect 4 0 1 0;
#X connect 5 0 0 0;
#X connect 6 0 0 0;
#X connect 7 0 1 0;
#X connect 8 0 6 0;
#X connect 8 0 2 0;
#X connect 9 0 7 0;
#X connect 9 0 3 0;
#X connect 10 0 4 1;
#X connect 10 0 5 1;
#X connect 11 0 10 0;
#X connect 12 0 2 1;
#X connect 12 0 3 1;
#X connect 12 0 26 1;
#X connect 13 0 14 0;
#X connect 13 0 26 2;
#X connect 14 0 7 1;
#X connect 14 0 6 1;
#X connect 14 0 11 0;
#X connect 15 0 16 0;
#X connect 16 0 17 0;
#X connect 16 0 25 0;
#X connect 16 0 26 0;
#X connect 17 0 12 0;
#X connect 18 0 24 0;
#X connect 20 0 22 0;
#X connect 20 0 27 0;
#X connect 21 0 23 0;
#X connect 22 0 19 0;
#X connect 22 0 16 0;
#X connect 22 0 31 0;
#X connect 23 0 19 0;
#X connect 23 0 31 0;
#X connect 24 0 20 0;
#X connect 24 1 21 0;
#X connect 25 0 13 0;
#X connect 26 0 30 0;
#X connect 29 0 28 0;
#X connect 30 0 29 0;
#X connect 31 2 16 0;
#X connect 31 3 30 1;
#X connect 32 0 13 0;
#X connect 33 0 12 0;
#X coords 0 -1 1 1 85 40 1 2 2;
