#N canvas 801 521 512 324 10;
#X obj 130 235 outlet~;
#X obj 62 236 outlet~;
#X obj 132 133 rev1~;
#X obj -10 133 rev1~;
#X obj -9 172 *~;
#X obj 131 173 *~;
#X obj 208 188 *~;
#X obj 61 171 *~;
#X obj 209 43 inlet~;
#X obj -11 42 inlet~;
#X obj 62 119 * -1;
#X obj 62 95 - 1;
#X obj 57 46 nbx 3 14 1 100 0 0 empty empty decay 0 -8 0 10 -262144
-1 -1 50 256;
#X obj 138 22 nbx 3 14 1 100 0 0 empty empty wet/dry 0 -8 0 10 -262144
-1 -1 50 256;
#X obj 138 42 / 100;
#X obj 298 46 loadbang;
#X msg 324 96 bang;
#X msg 279 128 50;
#X obj 393 -24 inlet;
#X obj 402 82 switch~;
#X obj 388 24 bng 15 250 50 0 empty empty empty 17 7 0 10 -262144 -1
-1;
#X obj 442 24 bng 15 250 50 0 empty empty empty 17 7 0 10 -262144 -1
-1;
#X msg 388 45 1;
#X msg 442 45 0;
#X obj 394 0 select 2;
#X msg 318 127 50;
#N canvas 838 623 450 404 osc_presets 0;
#X obj 14 11 inlet;
#X obj 14 32 bng 15 250 50 0 empty empty empty 17 7 0 10 -262144 -1
-1;
#X msg 27 149 /enc2 50;
#X obj 27 122 t b b b b;
#X obj 228 120 t b b b b;
#X msg 89 170 /enc2/min 0;
#X obj 62 217 nop;
#X obj 261 219 nop;
#X obj 148 338 outlet;
#X msg 89 149 /enc2/name decay;
#X msg 300 147 /enc3/name wet_dry;
#X msg 228 147 /enc3 50;
#X msg 300 168 /enc3/min 1;
#X msg 300 189 /enc3/max 100;
#X msg 89 191 /enc2/max 1000;
#X obj 276 264 t b;
#X msg 276 288 /patch_name reverb;
#X connect 0 0 1 0;
#X connect 1 0 3 0;
#X connect 1 0 4 0;
#X connect 2 0 6 0;
#X connect 3 0 2 0;
#X connect 3 1 9 0;
#X connect 3 2 5 0;
#X connect 3 3 14 0;
#X connect 4 0 11 0;
#X connect 4 1 10 0;
#X connect 4 2 12 0;
#X connect 4 3 13 0;
#X connect 5 0 6 0;
#X connect 6 0 8 0;
#X connect 7 0 8 0;
#X connect 7 0 15 0;
#X connect 9 0 6 0;
#X connect 10 0 7 0;
#X connect 11 0 7 0;
#X connect 12 0 7 0;
#X connect 13 0 7 0;
#X connect 14 0 6 0;
#X connect 15 0 16 0;
#X connect 16 0 8 0;
#X restore 296 189 pd osc_presets;
#X obj 296 220 outlet;
#X obj 55 12 r enc2;
#X obj 138 -14 r enc3;
#X connect 2 0 5 0;
#X connect 3 0 4 0;
#X connect 4 0 1 0;
#X connect 5 0 0 0;
#X connect 6 0 0 0;
#X connect 7 0 1 0;
#X connect 8 0 6 0;
#X connect 8 0 2 0;
#X connect 9 0 7 0;
#X connect 9 0 3 0;
#X connect 10 0 4 1;
#X connect 10 0 5 1;
#X connect 11 0 10 0;
#X connect 12 0 2 1;
#X connect 12 0 3 1;
#X connect 13 0 14 0;
#X connect 14 0 7 1;
#X connect 14 0 6 1;
#X connect 14 0 11 0;
#X connect 15 0 16 0;
#X connect 16 0 17 0;
#X connect 16 0 25 0;
#X connect 17 0 12 0;
#X connect 18 0 24 0;
#X connect 20 0 22 0;
#X connect 21 0 23 0;
#X connect 22 0 19 0;
#X connect 22 0 16 0;
#X connect 22 0 26 0;
#X connect 23 0 19 0;
#X connect 24 0 20 0;
#X connect 24 1 21 0;
#X connect 25 0 13 0;
#X connect 26 0 27 0;
#X connect 28 0 12 0;
#X connect 29 0 13 0;
